<svg xmlns="http://www.w3.org/2000/svg" viewBox="0 0 148.14 74.58"><defs><style>.cls-1{fill:#ef3f5e;}.cls-2{fill:#231f20;}.cls-3{fill:none;stroke:#231f20;stroke-linecap:round;stroke-linejoin:round;stroke-width:1.5px;}.cls-4{fill:#fcb116;}.cls-5{fill:#fff;}</style></defs><g id="Layer_2" data-name="Layer 2"><g id="Layer_1-2" data-name="Layer 1"><path class="cls-1" d="M16.64,64.31l0-.07a2.23,2.23,0,0,1,1-3l9.14-4.49a3.31,3.31,0,0,1,4.42,1.52l0,.08a3.39,3.39,0,0,1-1.55,4.56l-7,3.44A4.49,4.49,0,0,1,16.64,64.31Z"/><path class="cls-1" d="M22.88,42.53s.76,4-11.51,5.65a1.59,1.59,0,0,0-1.32,2l.18.6A8.74,8.74,0,0,0,15,56.32c6.26,2.83,19.18,7.69,28.55,4.53"/><path class="cls-1" d="M33,35.17s-13.51.2-15.36-12.07a.36.36,0,0,0-.71,0A17.53,17.53,0,0,0,27.68,40.21"/><rect class="cls-1" x="109.65" y="35.28" width="32.17" height="5.78" rx="2.89" transform="translate(-5.43 46.11) rotate(-20.35)"/><path class="cls-1" d="M30.7,36S36.39,32,54.24,33.21s48.06,3.13,52.57-7.46.4-29.42,21.78-22.17c11,3.73,16.67.79,16.67.79,7.65-1.77-1.17,12-12.16,11.38s-9.84,16.07-8.83,34.13C125,63,40.9,62.83,26,51.65,19.52,40.07,30.7,36,30.7,36Z"/><path class="cls-1" d="M114.63,4s-4.12-2.16-9.61,12c-1.57,4.12,3.72,10.4,5.88,10.4s7.85-5.1,9.22-8.24-2.94-4.51-2.75-11"/><path class="cls-1" d="M103.77,56.44s12,4.31,25.5-3.93c4.91-3.33,17.29-3.14,15.3-9.41-1.17-3.73-4.9,1.57-18.63,2.15"/><path class="cls-1" d="M.26,56l0-.07a2.22,2.22,0,0,1,1-3l9.13-4.49A3.32,3.32,0,0,1,14.81,50l0,.08a3.39,3.39,0,0,1-1.55,4.56l-7,3.44A4.5,4.5,0,0,1,.26,56Z"/><ellipse class="cls-2" cx="125.45" cy="6.91" rx="1.76" ry="2.39" transform="translate(6.4 47.06) rotate(-21.79)"/><circle class="cls-2" cx="146.38" cy="5.61" r="1.77"/><path class="cls-3" d="M135.32,15.68s-5.52.53-6.93-3.29"/><path class="cls-3" d="M121.23,7.52A6.54,6.54,0,0,1,126.92.75"/><path class="cls-3" d="M114.63,4s-4.12-2.16-9.61,12c-1.57,4.12,3.72,10.4,5.88,10.4s7.85-5.1,9.22-8.24-2.94-4.51-2.75-11"/><path class="cls-4" d="M116.28,65.25H33.78A15.57,15.57,0,0,1,18.21,49.67h0A15.2,15.2,0,0,1,33.78,34.09c9.22,0,12.69,2.25,41.25,2.25s32.65-2.25,41.25-2.25a15.59,15.59,0,0,1,15.58,15.58h0A15.58,15.58,0,0,1,116.28,65.25Z"/><path class="cls-5" d="M30,38.25c3.27.44,4.91.64,8.19,1,4.47.49,8.5,1.73,8.51,6.19a4.33,4.33,0,0,1-4,4.51V50c3,.71,4.71,2.45,4.71,5.13,0,5-4.76,6-9,6l-8.35,0Zm6.28,9.57.51,0c2.47.17,3.63-.29,3.63-1.93S39,43.86,36.63,43.65l-.36,0Zm0,8.6.65,0c2.85.07,4-.4,4-2s-1.1-2.09-3.89-2.22l-.73,0Z"/><path class="cls-5" d="M49.69,40.32c2.6.2,3.9.28,6.49.43,0,8.16,0,12.23,0,20.39H49.72C49.71,52.8,49.71,48.64,49.69,40.32Z"/><path class="cls-5" d="M73,41.33c2.37,0,3.56,0,5.93,0,0,7.92,0,11.88,0,19.8H70.36c-.74-1.65-1.11-2.48-1.84-4.13a81,81,0,0,1-3.39-9.3h-.06c.09,1.23.15,6.73.15,8.45v5H59.3c0-8.09,0-12.13,0-20.22,3.48.17,5.22.24,8.7.32.82,1.93,1.23,2.89,2.06,4.8a87.19,87.19,0,0,1,3.16,8.52h.06c-.12-1.5-.23-6.5-.23-9Z"/><path class="cls-5" d="M99.27,46.1a11.14,11.14,0,0,0-5-.86C91,45.36,88,47.21,88,51.1c0,3.64,2.29,5.68,5.41,5.65a7.36,7.36,0,0,0,1.25-.1v-2.9l-2.85,0V49.7c3.37-.08,5-.13,8.41-.26,0,4.49,0,6.73,0,11.22a24.29,24.29,0,0,1-5.86.77c-8.26,0-12.71-3.52-12.71-10,0-6.87,5.2-10.38,12-10.71a18.1,18.1,0,0,1,6.15.62C99.59,43.23,99.48,44.18,99.27,46.1Z"/><path class="cls-5" d="M123.52,49.64c0,7.49-4,11.91-10.49,11.91-6.12,0-10.29-4-10.28-11,0-6.3,4.08-10.88,10.33-11.54C119.53,38.37,123.52,42.54,123.52,49.64Zm-14.28.94c0,3.87,1.65,6,4,5.91S117,54.38,117,50.27c0-4.45-1.63-6.48-4-6.29C110.82,44.16,109.24,46.38,109.24,50.58Z"/><path class="cls-2" d="M35,67.65c1.57,0,2.76.38,2.76,2s-1.35,2-2.76,2h-.57v2.72h-1V67.65Zm-.57,3.26h.49c1.19,0,1.85-.24,1.85-1.21s-.66-1.22-1.86-1.22h-.48Z"/><path class="cls-2" d="M44.2,74.46H40.34V67.65h3.79v.83H41.32v2h2.61v.82H41.32v2.27H44.2Z"/><path class="cls-2" d="M48.51,74.46v-6l-2.12,0v-.87h5.18v.87l-2.06,0v6Z"/><path class="cls-2" d="M61.59,74.46H57.72V67.65h3.79v.83h-2.8v2h2.61v.82H58.71v2.27h2.88Z"/><path class="cls-2" d="M67.85,72c.12.31.36,1,.48,1.46h0c.13-.42.37-1.15.49-1.46l1.61-4.37H72v6.81h-.94V70c0-.32,0-1.09,0-1.61h0l-.48,1.33-1.83,4.79h-1L66,69.78c-.12-.31-.38-1-.5-1.44h0c0,.52,0,1.29,0,1.61v4.51h-.94V67.65h1.61Z"/><path class="cls-2" d="M76.84,67.65c1.56,0,2.75.38,2.75,2s-1.34,2-2.75,2h-.58v2.72h-1V67.65Zm-.58,3.26h.49c1.19,0,1.86-.24,1.86-1.21s-.67-1.22-1.87-1.22h-.48Z"/><path class="cls-2" d="M88.42,71c0,2.19-1.28,3.56-3.3,3.56a3.53,3.53,0,0,1,.09-7A3.17,3.17,0,0,1,88.42,71Zm-5.54,0c0,1.66.9,2.74,2.25,2.74s2.24-1.09,2.24-2.73-.87-2.74-2.24-2.74S82.88,69.42,82.88,71Z"/><path class="cls-2" d="M91.28,67.65H93c1.63,0,2.64.45,2.64,1.78,0,.93-.62,1.41-1.54,1.6h0A1.6,1.6,0,0,1,95,72l1.15,2.48h-1.1l-1-2.17c-.3-.7-.56-.87-1.55-.87h-.3v3h-1Zm1,2.95h.47c1.2,0,1.89-.31,1.89-1.09s-.69-1-1.89-1h-.47Z"/><path class="cls-2" d="M99.75,74.46h-1V67.65h1Z"/><path class="cls-2" d="M108.22,71.45c0,1.86-.81,3.13-2.69,3.13-2,0-2.61-1.39-2.61-3.13v-3.8h1v3.71c0,1.4.33,2.42,1.65,2.42s1.66-1,1.66-2.42V67.65h1Z"/><path class="cls-2" d="M114.65,72c.12.31.36,1,.48,1.46h0c.13-.42.37-1.15.49-1.46l1.61-4.37h1.57v6.81h-.94V70c0-.32,0-1.09,0-1.61h0l-.48,1.33-1.83,4.79h-.95l-1.8-4.68c-.12-.31-.38-1-.5-1.44h0c0,.52,0,1.29,0,1.61v4.51h-.94V67.65H113Z"/></g></g></svg>